<?xml version="1.0" encoding="UTF-8" standalone="no"?>
<!-- Created with Inkscape (http://www.inkscape.org/) -->
<svg xmlns:rdf="http://www.w3.org/1999/02/22-rdf-syntax-ns#" xmlns="http://www.w3.org/2000/svg" xmlns:cc="http://web.resource.org/cc/" xmlns:dc="http://purl.org/dc/elements/1.1/" xmlns:svg="http://www.w3.org/2000/svg" xmlns:inkscape="http://www.inkscape.org/namespaces/inkscape" xmlns:sodipodi="http://sodipodi.sourceforge.net/DTD/sodipodi-0.dtd" xmlns:ns1="http://sozi.baierouge.fr" xmlns:xlink="http://www.w3.org/1999/xlink" id="svg2" viewBox="0 0 223.07 298.6" version="1.0" inkscape:version="0.91 r13725">
  <g id="layer1" transform="translate(-239.74 -384.07)">
    <path id="path2383" style="stroke-linejoin:round;stroke:#000000;stroke-linecap:round;stroke-width:3.2874;fill:#784421" d="m441.29 560.71c0.02 49.72-40.29 90.04-90.02 90.04-49.72 0-90.03-40.32-90.02-90.04-0.01-49.73 40.3-90.05 90.02-90.05 49.73 0 90.04 40.32 90.02 90.05z" transform="matrix(1.2168 0 0 1.2168 -76.15 -121.55)"/>
    <path id="path3221" style="fill:#000000;fill-opacity:.31373" d="m454.19 523.12c0.07 1.69 0.12 3.4 0.12 5.1 0 60.46-49.06 109.53-109.53 109.53-47.26 0-87.59-30-102.94-71.97 2.66 58.11 50.68 104.47 109.44 104.47 60.47 0 109.53-49.07 109.53-109.53 0-13.2-2.34-25.87-6.62-37.6z"/>
    <path id="path3172" style="stroke-linejoin:round;stroke:#000000;stroke-linecap:round;stroke-width:4;fill:#502d16" d="m359.45 671.28c0 9.09 14.67 9.38 32.74 9.38s32.73 0.69 32.73-9.38c0-17.72-14.66-32.1-32.73-32.1s-32.74 14.38-32.74 32.1z"/>
    <path id="path3236" style="fill:#000000;fill-opacity:.31373" d="m435.91 525.42c0 45.17-55.12 81.84-81.84 81.84-25.72 0-81.84-36.67-81.84-81.84s24.63-81.84 81.84-81.84c57.22 0 81.84 36.67 81.84 81.84z"/>
    <path id="path3203" style="fill-rule:evenodd;stroke:#000000;stroke-width:4;fill:#502d16" d="m332.69 584.91c-9.34 18.39-5.9 24.75-4.43 27.23 1.48 2.47 7.01-17.38 9.83-13.79 3.35 4.25 0.49 16.62 1.48 25.81 0.98 9.19 4.95 19.84 5.9 16.26 1.96-7.42 4.42-32.88 9.33-25.81 4.92 7.07 9.62 22.82 11.8 16.97 1.85-4.97-5.9-25.81-2.46-30.05s8.85 13.08 10.81 8.13c1.97-4.95 3.94-16.26-2.95-24.39-6.88-8.13-39.31-0.71-39.31-0.36z"/>
    <path id="path3174" style="stroke-linejoin:round;fill-rule:evenodd;fill-opacity:.31373;stroke:#000000;stroke-width:4;fill:#000000" d="m404.78 680.06c0-16.37-9.44-26.44-9.44-26.44s3.77 13.85 3.14 26.44h6.3z"/>
    <path id="path3155" style="stroke-linejoin:round;stroke:#000000;stroke-linecap:round;stroke-width:4;fill:#784421" d="m108.88 46.344c-30.134 0.61-50.937 11.653-63.63 28.75-24.064-2.588-44.062 23.625-44.062 23.625-0.0005 0 18.891 9.451 32.062 1.531-2.399 8.71-3.562 18.11-3.562 27.91 0 45.17 56.125 81.84 81.842 81.84 26.72 0 81.85-36.67 81.85-81.84 0-9.8-1.17-19.2-3.57-27.91 13.17 7.92 32.03-1.531 32.03-1.531s-19.97-26.205-44.03-23.625c-13.06-17.595-34.71-28.75-66.28-28.75-0.89 0-1.78-0.018-2.65 0z" transform="translate(239.74 384.07)"/>
    <path id="path3157" style="stroke-linejoin:round;stroke:#000000;stroke-linecap:round;stroke-width:15.889;fill:#ffffff" d="m441.29 560.71c0.02 49.72-40.29 90.04-90.02 90.04-49.72 0-90.03-40.32-90.02-90.04-0.01-49.73 40.3-90.05 90.02-90.05 49.73 0 90.04 40.32 90.02 90.05z" transform="matrix(.25175 0 0 .25175 236.55 359.08)"/>
    <path id="path3159" style="stroke-linejoin:round;stroke:#000000;stroke-linecap:round;stroke-width:15.889;fill:#ffffff" d="m441.29 560.71c0.02 49.72-40.29 90.04-90.02 90.04-49.72 0-90.03-40.32-90.02-90.04-0.01-49.73 40.3-90.05 90.02-90.05 49.73 0 90.04 40.32 90.02 90.05z" transform="matrix(.25175 0 0 .25175 289.28 359.08)"/>
    <path id="path3161" style="fill:#000000" d="m441.29 560.71c0.02 49.72-40.29 90.04-90.02 90.04-49.72 0-90.03-40.32-90.02-90.04-0.01-49.73 40.3-90.05 90.02-90.05 49.73 0 90.04 40.32 90.02 90.05z" transform="matrix(.083916 0 0 .083916 343.2 457.18)"/>
    <path id="path3163" style="fill:#000000" d="m441.29 560.71c0.02 49.72-40.29 90.04-90.02 90.04-49.72 0-90.03-40.32-90.02-90.04-0.01-49.73 40.3-90.05 90.02-90.05 49.73 0 90.04 40.32 90.02 90.05z" transform="matrix(.083916 0 0 .083916 301.17 457.18)"/>
    <path id="path3179" style="fill-rule:evenodd;stroke:#000000;stroke-width:4;fill:#502d16" d="m357.25 429.21c16.21-43.6 54.91 3.09 66.01-5.11 11.5-8.5 2-32 6-37.5s22.61 33.06 15 47.5c-7.45 14.14-39.02 12.93-59.7 12.79-11.67-0.07-29.78-10.11-27.31-17.68z"/>
    <path id="path3231" style="fill:#000000;fill-opacity:.31373" d="m190.09 101.34l-1.87 2.66c0.25 3.08 0.34 6.2 0.34 9.38 0 45.17-55.12 81.84-81.84 81.84-20.707 0-61.098-23.76-76.064-56.6 7.616 40.25 57.172 71.38 80.874 71.38 26.72 0 81.85-36.67 81.85-81.84 0-9.4-1.08-18.41-3.29-26.82z" transform="translate(239.74 384.07)"/>
    <path id="path3329" style="stroke-linejoin:round;stroke:#000000;stroke-linecap:round;stroke-width:4;fill:#502d16" d="m344.46 671.28c0 9.09-14.67 9.38-32.74 9.38s-32.73 0.69-32.73-9.38c0-17.72 14.66-32.1 32.73-32.1s32.74 14.38 32.74 32.1z"/>
    <path id="path3331" style="stroke-linejoin:round;fill-rule:evenodd;fill-opacity:.31373;stroke:#000000;stroke-width:4;fill:#000000" d="m299.13 680.06c0-16.37 9.44-26.44 9.44-26.44s-3.77 13.85-3.14 26.44h-6.3z"/>
    <path id="path2398" style="fill:#000000" d="m367.87 564.87c-2.29 3.97-6.5 5.84-9.4 4.16-2.89-1.67-3.38-6.25-1.09-10.22s6.5-5.84 9.4-4.16c2.89 1.67 3.38 6.24 1.09 10.22z"/>
    <path id="path2412" style="fill:#000000" d="m335.13 564.87c2.29 3.97 6.5 5.84 9.4 4.16 2.89-1.67 3.38-6.25 1.09-10.22s-6.5-5.84-9.4-4.16c-2.89 1.67-3.38 6.24-1.09 10.22z"/>
    <path id="path2399" style="fill-rule:evenodd;stroke:#000000;stroke-width:4;fill:#502d16" d="m344.84 429.21c-16.21-43.6-54.91 3.09-66.01-5.11-11.5-8.5-2-32-6-37.5s-22.61 33.06-15 47.5c7.45 14.14 39.02 12.93 59.69 12.79 11.68-0.07 29.79-10.11 27.32-17.68z"/>
  </g>
  <metadata>
    <rdf:RDF>
      <cc:Work>
        <dc:format>image/svg+xml</dc:format>
        <dc:type rdf:resource="http://purl.org/dc/dcmitype/StillImage"/>
        <cc:license rdf:resource="http://creativecommons.org/licenses/publicdomain/"/>
        <dc:publisher>
          <cc:Agent rdf:about="http://openclipart.org/">
            <dc:title>Openclipart</dc:title>
          </cc:Agent>
        </dc:publisher>
        <dc:title>Cartoon gnu</dc:title>
        <dc:date>2008-07-07T09:31:00</dc:date>
        <dc:description/>
        <dc:source>https://openclipart.org/detail/17624/cartoon-gnu-by-lemmling</dc:source>
        <dc:creator>
          <cc:Agent>
            <dc:title>lemmling</dc:title>
          </cc:Agent>
        </dc:creator>
        <dc:subject>
          <rdf:Bag>
            <rdf:li>animal</rdf:li>
            <rdf:li>cartoon</rdf:li>
            <rdf:li>colour</rdf:li>
            <rdf:li>funny</rdf:li>
            <rdf:li>gnu</rdf:li>
            <rdf:li>how i did it</rdf:li>
            <rdf:li>mammal</rdf:li>
            <rdf:li>wildebeest</rdf:li>
          </rdf:Bag>
        </dc:subject>
      </cc:Work>
      <cc:License rdf:about="http://creativecommons.org/licenses/publicdomain/">
        <cc:permits rdf:resource="http://creativecommons.org/ns#Reproduction"/>
        <cc:permits rdf:resource="http://creativecommons.org/ns#Distribution"/>
        <cc:permits rdf:resource="http://creativecommons.org/ns#DerivativeWorks"/>
      </cc:License>
    </rdf:RDF>
  </metadata>
</svg>
